<svg width="17" height="19" viewBox="0 0 17 19" fill="none" xmlns="http://www.w3.org/2000/svg">
<path d="M16.998 9.8826C16.998 11.7782 16.998 13.6695 16.998 15.5651C16.998 15.8831 16.8298 16.1291 16.5554 16.2393C16.2898 16.3411 15.9843 16.2775 15.7807 16.0782C15.6214 15.9213 15.5771 15.7305 15.5771 15.5142C15.5815 12.3337 15.5815 9.15321 15.5771 5.97272C15.5771 5.40023 15.6169 4.82774 15.5417 4.2595C15.3513 2.82616 14.0632 1.58789 12.5715 1.4013C12.3457 1.37161 12.1155 1.36313 11.8898 1.36313C9.13644 1.36313 6.38754 1.36313 3.63421 1.36313C3.13844 1.36313 2.83743 1.12566 2.83301 0.735517C2.82858 0.315693 3.17828 0.00188473 3.65635 0.00188473C6.56903 0.00188473 9.48614 -0.00235592 12.3988 0.00188473C14.9485 0.010366 16.9892 1.96955 16.998 4.41216C17.0025 6.23564 16.998 8.05912 16.998 9.8826Z" fill="#C2CBD3"/>
<path d="M14.165 5.01433C14.165 3.68277 13.1602 2.7159 11.7658 2.7159C8.56984 2.7159 5.37828 2.7159 2.1823 2.7159C0.885314 2.72014 0 3.55979 0 4.8023C0 6.78693 0 8.77579 0 10.7604C0 12.7408 0 14.7169 0 16.6973C0 18.0416 1.00483 19 2.41248 19C5.52436 19 8.63624 19 11.7525 19C13.1646 19 14.165 18.0416 14.165 16.6931C14.165 12.8044 14.165 8.90725 14.165 5.01433ZM2.85956 6.78268C2.97023 6.38406 3.31107 6.11266 3.74045 6.11266C4.78512 6.10842 5.83422 6.10842 6.87889 6.11266C7.38352 6.1169 7.77306 6.48584 7.79076 6.96927C7.79519 7.07529 7.79519 7.18131 7.79076 7.28732C7.77748 7.76652 7.38795 8.13969 6.88332 8.14817C6.36098 8.15242 5.83865 8.14817 5.31188 8.14817C4.80283 8.14817 4.29377 8.14817 3.78472 8.14817C3.21369 8.14393 2.83301 7.775 2.83301 7.22795C2.83301 7.07529 2.81973 6.92687 2.85956 6.78268ZM9.90224 14.8823C9.82256 15.3191 9.45073 15.6075 8.97709 15.6075C8.10948 15.6117 7.23744 15.6075 6.36983 15.6075C5.52436 15.6075 4.67446 15.6075 3.82898 15.6075C3.21369 15.6075 2.84186 15.247 2.83743 14.6576C2.83301 14.0512 3.05433 13.7204 3.53683 13.6017C3.62093 13.5804 3.70947 13.5762 3.798 13.5762C5.51551 13.5762 7.23302 13.5762 8.95053 13.5762C9.53483 13.5762 9.91994 13.9451 9.91994 14.5049C9.91552 14.6279 9.92437 14.7593 9.90224 14.8823ZM11.3143 11.1633C11.2302 11.6001 10.8628 11.8757 10.3803 11.8799C9.28252 11.8842 8.18473 11.8799 7.08694 11.8799C6.00243 11.8799 4.91792 11.8799 3.83784 11.8799C3.20926 11.8799 2.83743 11.5195 2.83743 10.9173C2.83743 10.3151 3.05876 9.98013 3.54568 9.86988C3.63864 9.84867 3.73603 9.84443 3.82898 9.84443C6.00243 9.84443 8.17588 9.84443 10.3537 9.84443C10.9513 9.84443 11.332 10.2091 11.332 10.7859C11.332 10.9088 11.3409 11.0361 11.3143 11.1633Z" fill="#C2CBD3"/>
</svg>
